HIERARCHY
ROOT Hips
{
	OFFSET 0.000000 0.000000 0.000000
	CHANNELS 6 Xposition Yposition Zposition Zrotation Yrotation Xrotation 
	JOINT LeftUpLeg_virtual
	{
		OFFSET 0.000000 0.000000 0.000000
		CHANNELS 3 Zrotation Yrotation Xrotation
		JOINT LeftUpLeg
		{
			OFFSET 10.205400 -3.823500 0.155100
			CHANNELS 3 Zrotation Yrotation Xrotation
			JOINT LeftLeg
			{
				OFFSET 0.708757 -12.982077 0.567790
				CHANNELS 3 Zrotation Yrotation Xrotation
				JOINT LeftFoot
				{
					OFFSET -0.708756 -10.717838 -2.184338
					CHANNELS 3 Zrotation Yrotation Xrotation
					JOINT LeftToeBase
					{
						OFFSET 0.108149 -7.191104 7.560241
						CHANNELS 3 Zrotation Yrotation Xrotation
						End Site
						{
							OFFSET 0.000000 0.000000 0.000000
						}
					}
				}
			}
		}
	}
	JOINT RightUpLeg_virtual
	{
		OFFSET 0.000000 0.000000 0.000000
		CHANNELS 3 Zrotation Yrotation Xrotation
		JOINT RightUpLeg
		{
			OFFSET -10.205400 -3.823500 0.005500
			CHANNELS 3 Zrotation Yrotation Xrotation
			JOINT RightLeg
			{
				OFFSET -0.708756 -12.982134 0.610632
				CHANNELS 3 Zrotation Yrotation Xrotation
				JOINT RightFoot
				{
					OFFSET 0.708754 -10.717769 -1.945823
					CHANNELS 3 Zrotation Yrotation Xrotation
					JOINT RightToeBase
					{
						OFFSET -0.108140 -7.191069 7.372968
						CHANNELS 3 Zrotation Yrotation Xrotation
						End Site
						{
							OFFSET 0.000000 0.000000 0.000000
						}
					}
				}
			}
		}
	}
	JOINT Spine_virtual
	{
		OFFSET 0.000000 0.000000 0.000000
		CHANNELS 3 Zrotation Yrotation Xrotation
		JOINT Spine
		{
			OFFSET 0.000000 6.876099 0.125700
			CHANNELS 3 Zrotation Yrotation Xrotation
			JOINT Spine1
			{
				OFFSET 0.000000 8.022060 0.146608
				CHANNELS 3 Zrotation Yrotation Xrotation
				JOINT Spine2
				{
					OFFSET 0.000000 9.168068 0.167552
					CHANNELS 3 Zrotation Yrotation Xrotation
					JOINT Neck_virtual
					{
						OFFSET 0.000000 0.000000 0.000000
						CHANNELS 3 Zrotation Yrotation Xrotation
						JOINT Neck
						{
							OFFSET 0.000000 10.314075 0.188496
							CHANNELS 3 Zrotation Yrotation Xrotation
							JOINT Head
							{
								OFFSET 0.000000 7.643700 -2.377400
								CHANNELS 3 Zrotation Yrotation Xrotation
								End Site
								{
									OFFSET 0.000000 0.000000 0.000000
								}
							}
						}
					}
					JOINT LeftShoulder_virtual
					{
						OFFSET 0.000000 0.000000 0.000000
						CHANNELS 3 Zrotation Yrotation Xrotation
						JOINT LeftShoulder
						{
							OFFSET 4.392200 8.824978 0.174984
							CHANNELS 3 Zrotation Yrotation Xrotation
							JOINT LeftArm
							{
								OFFSET 8.771219 -2.981674 -0.026999
								CHANNELS 3 Zrotation Yrotation Xrotation
								JOINT LeftForeArm
								{
									OFFSET 8.512804 0.000000 -0.000000
									CHANNELS 3 Zrotation Yrotation Xrotation
									JOINT LeftHand
									{
										OFFSET 18.484802 0.000000 -0.000000
										CHANNELS 3 Zrotation Yrotation Xrotation
										End Site
										{
											OFFSET 0.000000 0.000000 0.000000
										}
									}
								}
							}
						}
					}
					JOINT RightShoulder_virtual
					{
						OFFSET 0.000000 0.000000 0.000000
						CHANNELS 3 Zrotation Yrotation Xrotation
						JOINT RightShoulder
						{
							OFFSET -4.392200 8.824993 0.141379
							CHANNELS 3 Zrotation Yrotation Xrotation
							JOINT RightArm
							{
								OFFSET -8.771282 -2.981682 -0.094208
								CHANNELS 3 Zrotation Yrotation Xrotation
								JOINT RightForeArm
								{
									OFFSET -8.494598 0.000000 0.000000
									CHANNELS 3 Zrotation Yrotation Xrotation
									JOINT RightHand
									{
										OFFSET -18.483803 0.000000 0.000001
										CHANNELS 3 Zrotation Yrotation Xrotation
										End Site
										{
											OFFSET 0.000000 0.000000 0.000000
										}
									}
								}
							}
						}
					}
				}
			}
		}
	}
}
MOTION
Frames: 12
Frame Time: 0.033333
1.801524 36.195293 9.572056 179.662430 4.435207 -179.529828 -2.221786 -4.003349 7.563033 -7.653975 3.550195 -18.197231 10.202453 5.145415 22.577426 2.405700 -2.225555 6.154449 0.000000 0.000000 0.000000 0.950191 -1.556096 4.339061 3.953083 4.246585 -10.723744 -6.812424 0.514254 17.328689 6.374963 5.464404 8.260489 0.000000 0.000000 0.000000 -0.995446 -0.044140 -4.869452 1.508848 -1.336131 -10.003798 -1.743712 -2.210802 7.268453 0.048365 0.077997 0.089393 -2.348315 -0.125661 8.515669 -4.359140 -0.543278 10.152296 0.000000 0.000000 0.000000 -0.227562 0.491191 6.094690 -13.389018 -2.508525 3.804047 -53.686438 21.488364 16.817560 -1.307101 -52.595301 8.577112 0.000000 0.000000 0.000000 -4.340459 1.651916 5.418940 26.110408 3.060844 2.980823 51.457829 -21.227381 19.236681 -6.493616 37.390153 -5.211251 0.000000 0.000000 0.000000 
1.854551 36.203075 9.580419 179.371149 4.445170 -179.382228 -2.036460 -3.862288 7.828727 -7.972511 3.386904 -18.081577 9.890310 5.710728 22.892376 1.858507 -2.552280 6.249559 0.000000 0.000000 0.000000 0.763933 -1.386589 4.270750 4.132440 3.761558 -10.907284 -6.726834 0.159008 17.603363 6.209164 5.401926 8.695031 0.000000 0.000000 0.000000 -1.160743 0.168900 -5.017610 1.386063 -1.407843 -10.131514 -1.681143 -2.271221 7.297327 0.067045 0.095890 0.152033 -2.321158 -0.188443 8.582734 -4.277283 -0.556937 10.120462 0.000000 0.000000 0.000000 -0.244127 0.505550 6.211695 -13.445304 -2.571515 3.751143 -53.454109 21.537593 16.544166 -1.090091 -52.507817 8.307638 0.000000 0.000000 0.000000 -4.287660 1.660413 5.523837 26.148030 3.178438 2.970605 51.383687 -20.922830 19.475793 -6.599669 37.508209 -5.310387 0.000000 0.000000 0.000000 
1.898937 36.210880 9.601274 179.478588 4.267311 -179.386832 -1.905200 -3.789289 7.845754 -7.790442 3.406666 -18.215689 9.760297 5.698746 22.959785 1.737996 -2.660067 6.265161 0.000000 0.000000 0.000000 0.939431 -1.296177 4.318774 4.202901 3.682378 -10.880588 -6.730284 0.231288 17.622404 5.982714 5.319310 8.641074 0.000000 0.000000 0.000000 -1.018376 0.038481 -5.113181 1.541583 -1.437392 -10.170144 -1.696854 -2.194990 7.383767 0.082404 0.158715 0.172987 -2.247046 -0.131606 8.676491 -3.817035 -0.948015 10.269882 0.000000 0.000000 0.000000 -0.208377 0.440438 6.271773 -13.583584 -2.740572 3.795024 -53.162460 21.321004 16.062064 -1.104294 -52.193194 8.220453 0.000000 0.000000 0.000000 -4.239767 1.707989 5.585277 26.123348 3.369927 3.040571 51.297890 -20.756813 20.126008 -6.738838 37.736051 -5.378451 0.000000 0.000000 0.000000 
1.926791 36.226067 9.638289 179.541044 3.988148 -179.444096 -1.878315 -3.738660 7.793343 -7.600208 3.486958 -18.268927 9.626300 5.637779 23.020065 1.605284 -2.833640 6.269684 0.000000 0.000000 0.000000 1.048194 -1.270970 4.327245 4.267190 3.496413 -10.800556 -6.728544 0.245674 17.622631 5.926179 5.279443 8.641521 0.000000 0.000000 0.000000 -1.008684 0.226655 -5.184236 1.625719 -1.592328 -10.142285 -1.570648 -2.270063 7.429513 0.093233 0.123246 0.149573 -2.158592 -0.182220 8.894826 -3.104426 -1.369847 10.525493 0.000000 0.000000 0.000000 -0.187580 0.452941 6.457907 -13.859247 -3.065171 3.674634 -52.742854 21.190752 15.363875 -1.136432 -51.857638 8.113466 0.000000 0.000000 0.000000 -4.227502 1.548530 5.729003 25.932736 3.554648 3.025693 51.240769 -20.686966 20.905525 -6.984751 38.098177 -5.416049 0.000000 0.000000 0.000000 
1.935465 36.243595 9.689567 179.561165 3.661950 -179.443836 -1.916320 -3.689595 7.604830 -7.321179 3.501483 -18.256150 9.417800 5.733001 23.059685 1.503893 -2.997440 6.179495 0.000000 0.000000 0.000000 1.116042 -1.170861 4.254356 4.272146 3.245955 -10.650371 -6.697443 0.276328 17.593946 5.741036 5.233893 8.616338 0.000000 0.000000 0.000000 -0.965452 0.278618 -5.486381 1.618802 -1.771501 -10.071973 -1.485189 -2.299676 7.753950 0.074846 0.091600 0.115584 -1.911408 -0.100072 9.039711 -2.155231 -1.815209 10.568218 0.000000 0.000000 0.000000 -0.019940 0.459093 6.558836 -14.108267 -3.460931 3.642465 -52.324262 20.980879 14.617100 -0.999345 -51.461002 7.823866 0.000000 0.000000 0.000000 -4.074096 1.615533 5.861757 25.608952 3.766028 2.975774 51.157584 -20.778269 21.731867 -7.057049 38.496691 -5.465995 0.000000 0.000000 0.000000 
1.920352 36.249725 9.747220 179.525402 3.329486 -179.529323 -1.993812 -3.565295 7.415452 -7.147746 3.486563 -18.134651 9.225879 5.821052 23.087533 1.442917 -3.143919 6.072716 0.000000 0.000000 0.000000 1.134773 -1.030099 4.156441 4.247506 3.100178 -10.449186 -6.670423 0.337454 17.649902 5.468193 5.107916 8.545945 0.000000 0.000000 0.000000 -1.115791 0.344846 -5.624460 1.701401 -1.921284 -9.948096 -1.334430 -2.308046 7.826756 0.049834 0.097584 0.146803 -1.748893 -0.105739 9.278376 -1.061126 -2.330729 10.807462 0.000000 0.000000 0.000000 0.065858 0.489712 6.855335 -14.336241 -3.992994 3.562978 -51.784886 20.737817 13.832833 -1.023872 -51.238754 7.677186 0.000000 0.000000 0.000000 -3.981447 1.646698 6.055595 25.301512 3.973482 2.961583 51.241124 -20.924083 22.518394 -7.552255 38.962917 -5.615557 0.000000 0.000000 0.000000 
1.861897 36.248070 9.792394 179.609182 3.055973 -179.553270 -1.933416 -3.361598 7.211537 -7.108604 3.500591 -18.009139 9.048349 5.941390 23.056951 1.430018 -3.277100 6.003374 0.000000 0.000000 0.000000 1.240434 -0.773634 4.045129 4.195597 2.973834 -10.293744 -6.673065 0.493679 17.776136 5.206575 5.080346 8.349999 0.000000 0.000000 0.000000 -1.123102 0.505529 -5.881782 1.740976 -2.062688 -9.863386 -1.208934 -2.309705 8.139277 0.048953 0.104204 0.134370 -1.599751 -0.232316 9.518050 0.099128 -2.821832 10.939317 0.000000 0.000000 0.000000 0.142159 0.369823 6.978731 -14.479521 -4.346785 3.472826 -51.235001 20.530656 13.176776 -1.045760 -51.165968 7.578634 0.000000 0.000000 0.000000 -3.902948 1.567496 6.186642 24.992453 4.218080 2.877674 51.215825 -21.156081 23.111145 -7.750957 39.484395 -5.603496 0.000000 0.000000 0.000000 
1.756422 36.236675 9.833277 179.595111 2.849399 -179.580713 -1.962455 -3.170260 7.072339 -7.235029 3.441585 -17.925753 8.931912 6.197142 22.970650 1.491977 -3.391335 6.036383 0.000000 0.000000 0.000000 1.220080 -0.508729 3.980597 4.066921 2.949145 -10.209330 -6.807581 0.635857 17.897344 5.260680 4.925172 8.149328 0.000000 0.000000 0.000000 -1.195123 0.643397 -6.042239 1.738166 -2.181495 -9.792210 -1.121839 -2.299394 8.308019 0.014542 0.116364 0.106915 -1.465151 -0.284286 9.769535 1.196605 -3.327311 11.079137 0.000000 0.000000 0.000000 0.227521 0.346827 7.173959 -14.547292 -4.711430 3.264874 -50.741974 20.401048 12.704247 -1.240710 -51.241237 7.694042 0.000000 0.000000 0.000000 -3.807076 1.449024 6.511179 24.754347 4.559132 2.850296 51.116811 -21.361666 23.753472 -8.099794 39.838455 -5.732318 0.000000 0.000000 0.000000 
1.590651 36.223866 9.898263 179.431610 2.775026 -179.633784 -2.096345 -3.037920 7.029342 -7.566799 3.409373 -17.942555 8.974303 6.658916 22.852303 1.623488 -3.496827 6.087009 0.000000 0.000000 0.000000 0.990085 -0.376184 3.958075 3.874380 2.997440 -10.237902 -7.067373 0.748552 18.039404 5.785784 4.980857 7.971776 0.000000 0.000000 0.000000 -1.362203 0.803717 -6.082537 1.701254 -2.311851 -9.775497 -1.026042 -2.329844 8.446722 0.065837 0.090522 0.051522 -1.400217 -0.372928 10.061873 2.158112 -3.837197 11.259391 0.000000 0.000000 0.000000 0.281573 0.282188 7.481125 -14.717389 -5.098292 3.166124 -50.432471 20.184872 12.674686 -1.119165 -51.212676 7.549900 0.000000 0.000000 0.000000 -3.758942 1.457688 6.750918 24.572736 4.712430 2.830335 50.915310 -21.603327 24.188019 -8.383680 40.250797 -5.734587 0.000000 0.000000 0.000000 
1.370612 36.217339 9.998584 179.464313 2.820652 -179.609332 -2.069428 -2.971997 7.028937 -8.004075 3.409832 -18.106876 9.023792 7.205472 22.725335 1.844960 -3.562645 6.148247 0.000000 0.000000 0.000000 1.030150 -0.303604 3.917281 3.482275 3.279991 -10.406322 -7.173635 1.141374 18.002569 6.003333 4.839773 7.998730 0.000000 0.000000 0.000000 -1.302056 0.841381 -6.108587 1.775520 -2.386653 -9.814149 -0.991651 -2.339568 8.584055 0.093917 0.067142 0.116953 -1.393447 -0.242023 10.179837 3.054883 -4.200405 11.337609 0.000000 0.000000 0.000000 0.236216 0.279689 7.590256 -14.829717 -5.351019 3.008340 -50.295601 20.126587 12.702549 -1.314606 -51.339643 7.813902 0.000000 0.000000 0.000000 -3.745117 1.488585 6.882701 24.407157 4.953260 2.741598 50.644237 -21.762383 24.291153 -8.614451 40.497363 -5.835373 0.000000 0.000000 0.000000 
1.095422 36.211296 10.135611 179.483042 2.993892 -179.601778 -2.082037 -2.989916 7.113730 -8.654012 3.717089 -18.422979 9.191816 7.562448 22.600884 2.027444 -3.618955 6.193083 0.000000 0.000000 0.000000 1.086188 -0.378995 3.861336 2.861633 3.958414 -10.761987 -7.250590 1.566458 18.033822 6.484037 4.793020 8.082253 0.000000 0.000000 0.000000 -1.255270 0.889625 -6.034809 1.860750 -2.409437 -9.872664 -0.902735 -2.356224 8.679607 0.043668 0.058998 0.103762 -1.358420 -0.353909 10.316488 3.763941 -4.566793 11.461378 0.000000 0.000000 0.000000 0.286056 0.260577 7.695418 -14.954834 -5.595657 2.875032 -50.251286 20.164137 12.984924 -1.370895 -51.664849 7.952958 0.000000 0.000000 0.000000 -3.644086 1.471605 7.050832 24.239312 5.115817 2.709192 50.282063 -21.752146 24.237671 -8.812465 40.614514 -5.870151 0.000000 0.000000 0.000000 
0.771307 36.202377 10.309691 179.529350 3.325591 -179.588623 -2.106730 -3.032417 7.233276 -9.461800 4.336571 -18.881138 9.437380 7.879981 22.489339 2.081230 -3.696351 6.245526 0.000000 0.000000 0.000000 1.195735 -0.518604 3.775416 2.154913 4.576629 -11.361229 -7.335908 2.404544 18.241642 6.959636 4.774485 8.232537 0.000000 0.000000 0.000000 -1.031009 0.773029 -5.921502 2.031808 -2.353123 -9.912661 -0.992731 -2.282549 8.726580 0.016388 0.062730 0.125890 -1.321340 -0.323010 10.334349 4.434319 -4.779848 11.562502 0.000000 0.000000 0.000000 0.305753 0.329605 7.814789 -15.026085 -5.712541 2.680653 -50.404955 20.343413 13.210237 -1.497898 -52.082030 8.183467 0.000000 0.000000 0.000000 -3.607763 1.544764 7.171715 24.119956 5.249717 2.633491 50.067643 -21.599575 23.910267 -8.955403 40.651882 -6.009557 0.000000 0.000000 0.000000 
